<?xml version="1.0" encoding="utf-8"?>
<svg id="ic_fluent_data_bar_vertical_ascending_16_regular" width="16" height="16"
    style="width:16px;height:16px;" version="1.1" xmlns="http://www.w3.org/2000/svg"
    viewBox="0 0 500 500" enable-background="new 0 0 500 500" xml:space="preserve"><path fill="#000000" d="M357.31 71.92 q0 -29.68 20.55 -50.8 q20.54 -21.12 50.22 -21.12 q29.68 0 50.8 21.12 q21.12 21.12 21.12 50.8 l0 356.16 q0 29.68 -21.12 50.8 q-21.12 21.12 -50.8 21.12 q-29.68 0 -50.22 -21.12 q-20.55 -21.12 -20.55 -50.8 l0 -356.16 ZM428.08 463.47 q14.84 0 25.69 -10.27 q10.85 -10.28 10.85 -25.12 l0 -356.16 q0 -14.84 -10.85 -25.69 q-10.84 -10.84 -25.68 -10.84 q-14.84 0 -25.12 10.84 q-10.28 10.84 -10.28 25.69 l0 356.16 q0 14.84 10.28 25.12 q10.27 10.27 25.11 10.27 ZM0 285.39 q0 -29.68 21.12 -50.23 q21.12 -20.55 50.8 -20.55 q29.68 0 50.22 20.55 q20.55 20.55 20.55 50.23 l0 142.69 q0 29.68 -20.55 50.8 q-20.55 21.12 -50.22 21.12 q-29.68 0 -50.8 -21.12 q-21.12 -21.12 -21.12 -50.8 l0 -142.69 ZM71.92 463.47 q14.84 1.14 25.11 -9.71 q10.28 -10.84 10.28 -25.69 l0 -142.69 q0 -14.84 -10.28 -25.12 q-10.27 -10.27 -25.11 -10.27 q-14.84 0 -25.12 10.27 q-10.27 10.28 -10.27 25.12 l0 142.69 q-1.14 14.84 9.7 25.12 q10.84 10.27 25.69 10.27 ZM250 142.69 q-29.68 0 -50.23 21.12 q-20.55 21.12 -20.55 50.8 l0 213.47 q0 29.68 20.55 50.8 q20.55 21.12 50.23 21.12 q29.68 0 50.8 -21.12 q21.12 -21.12 21.12 -50.8 l0 -213.47 q0 -29.68 -21.12 -50.8 q-21.12 -21.12 -50.8 -21.12 ZM250 178.08 q14.84 0 25.12 10.84 q10.27 10.84 10.27 25.69 l0 213.47 q0 14.84 -10.27 25.12 q-10.28 10.27 -25.12 10.27 q-14.84 0 -25.12 -10.27 q-10.27 -10.28 -10.27 -25.12 l0 -213.47 q0 -14.84 10.27 -25.69 q10.28 -10.84 25.12 -10.84 Z"/></svg>