<svg t="1705807958148" class="icon" viewBox="0 0 1024 1024" version="1.1" xmlns="http://www.w3.org/2000/svg" p-id="20079" width="16" height="16"><path d="M320 672m-64 0a64 64 0 1 0 128 0 64 64 0 1 0-128 0Z" p-id="20080" fill="#000000"></path><path d="M736 640m-64 0a64 64 0 1 0 128 0 64 64 0 1 0-128 0Z" p-id="20081" fill="#000000"></path><path d="M416 320m-64 0a64 64 0 1 0 128 0 64 64 0 1 0-128 0Z" p-id="20082" fill="#000000"></path><path d="M448 480m-32 0a32 32 0 1 0 64 0 32 32 0 1 0-64 0Z" p-id="20083" fill="#000000"></path><path d="M736 160m-64 0a64 64 0 1 0 128 0 64 64 0 1 0-128 0Z" p-id="20084" fill="#000000"></path><path d="M928 96m-32 0a32 32 0 1 0 64 0 32 32 0 1 0-64 0Z" p-id="20085" fill="#000000"></path><path d="M512 736m-32 0a32 32 0 1 0 64 0 32 32 0 1 0-64 0Z" p-id="20086" fill="#000000"></path><path d="M512 960C265.6 960 64 758.4 64 512S265.6 64 512 64h9.6l44.8 3.2-9.6 38.4c-3.2 12.8-6.4 28.8-6.4 41.6 0 89.6 70.4 160 160 160 32 0 64-9.6 92.8-28.8l41.6 48c-12.8 12.8-19.2 28.8-19.2 44.8 0 41.6 41.6 76.8 86.4 60.8l38.4-16 6.4 41.6c3.2 19.2 3.2 38.4 3.2 54.4 0 246.4-201.6 448-448 448z m-22.4-832C288 140.8 128 307.2 128 512c0 211.2 172.8 384 384 384s384-172.8 384-384v-12.8c-73.6 3.2-134.4-54.4-134.4-128v-6.4c-16 3.2-32 6.4-51.2 6.4-124.8 0-224-99.2-224-224 0-6.4 0-12.8 3.2-19.2z" p-id="20087" fill="#000000"></path></svg>