<svg t="1705926787846" class="icon" viewBox="0 0 1024 1024" version="1.1" xmlns="http://www.w3.org/2000/svg" p-id="2664" width="16" height="16"><path d="M933.7 0H90.3C40.9 0 0.8 40.1 0.8 89.5v843.4c0 49.4 40.1 89.5 89.5 89.5h843.4c49.4 0 89.5-40.1 89.5-89.5V89.5c0-49.4-40.1-89.5-89.5-89.5z m-865 109.3c0-22.9 18.6-41.5 41.5-41.5h803.7c22.9 0 41.5 18.6 41.5 41.5V913c0 22.9-18.6 41.5-41.5 41.5H110.2c-22.9 0-41.5-18.6-41.5-41.5V109.3z" p-id="2665" fill="#ffffff"></path><path d="M713.3 297.9L613.6 395l-29.2-30.2L560 479.5l115.5-20.4-29.3-30.3 99.8-97.1zM335.3 496.1h69V564h-69zM454.4 564h23.7v23.6h67.7v-91.5h-91.4zM261.5 756.8h-67.8v91.5h91.5v-67.9h-23.7zM193.7 637.7h67.8v69.1h-67.8zM335.3 780.4h69v67.9h-69zM478.1 780.4h-23.7v67.9h91.4v-91.5h-67.7zM478.1 637.7h67.8v69.1h-67.8z" p-id="2666" fill="#ffffff"></path><path d="M260.8 280.9h502.5v502.4h-177v67.8h244.8V213H193v242.7h67.8z" p-id="2667" fill="#ffffff"></path><path d="M193.7 587.6h67.8V564h23.7v-67.9h-91.5z" p-id="2668" fill="#ffffff"></path></svg>