<svg t="1706257511779" class="icon" viewBox="0 0 1024 1024" version="1.1" xmlns="http://www.w3.org/2000/svg" p-id="2383" width="16" height="16"><path d="M512 85.333333a384 384 0 0 1 384 384v320a149.333333 149.333333 0 0 1-272.64 84.309334 128 128 0 0 1-222.848 0 149.333333 149.333333 0 0 1-272.298667-76.074667L128 789.290667V469.333333a384 384 0 0 1 384-384z m0 85.333334a298.666667 298.666667 0 0 0-298.496 288.426666L213.333333 469.333333v317.696l0.085334 5.888a64 64 0 0 0 112.853333 37.546667l3.754667-4.949333a85.333333 85.333333 0 0 1 144.768 6.058666 42.624 42.624 0 0 0 74.24 0.128 85.333333 85.333333 0 0 1 140.629333-11.861333l4.138667 5.546667a64 64 0 0 0 116.608-29.909334L810.666667 789.333333V469.333333a298.666667 298.666667 0 0 0-298.666667-298.666666z m0 341.333333c47.146667 0 85.333333 47.786667 85.333333 106.666667s-38.186667 106.666667-85.333333 106.666666-85.333333-47.786667-85.333333-106.666666 38.186667-106.666667 85.333333-106.666667zM405.333333 341.333333a64 64 0 1 1 0 128 64 64 0 0 1 0-128z m213.333334 0a64 64 0 1 1 0 128 64 64 0 0 1 0-128z" p-id="2384" fill="#ffffff"></path></svg>