<svg t="1706257762833" class="icon" viewBox="0 0 1024 1024" version="1.1" xmlns="http://www.w3.org/2000/svg" p-id="3766" width="16" height="16"><path d="M928 30.016v64h-148.608V274.56A267.392 267.392 0 0 1 635.264 512a267.392 267.392 0 0 1 144.256 237.44l-0.064 180.48 148.608 0.064v64h-832v-64h148.544V749.44c0-103.296 58.56-192.896 144.256-237.44a267.392 267.392 0 0 1-144.256-237.44V94.08H96v-64h832zM512 545.92a203.456 203.456 0 0 0-203.136 191.872l-0.32 11.52V928h406.848v-178.56A203.456 203.456 0 0 0 523.52 546.304L512 545.984zM715.392 96H308.544v178.56A203.456 203.456 0 0 0 500.48 477.696l11.52 0.32a203.456 203.456 0 0 0 203.136-191.872l0.32-11.52-0.064-178.624z" fill="#ffffff" p-id="3767"></path></svg>