<svg t="1705927558579" class="icon" viewBox="0 0 1024 1024" version="1.1" xmlns="http://www.w3.org/2000/svg" p-id="6144" width="16" height="16"><path d="M576 677.632 576 928C576 945.664 590.336 960 608 960s32-14.336 32-32l0-180.672 203.456 203.52c11.968 11.968 31.36 11.968 43.392 0 11.968-12.032 11.968-31.424 0-43.392L683.328 704 864 704c17.664 0 32-14.336 32-32S881.664 640 864 640L613.632 640C590.272 640 576 652.032 576 677.632z" p-id="6145" fill="#ffffff"></path><path d="M348.352 640 97.984 640c-17.664 0-32 14.336-32 32s14.336 32 32 32l180.672 0-203.52 203.456c-11.968 11.968-11.968 31.36 0 43.392 12.032 11.968 31.424 11.968 43.392 0l203.456-203.52L321.984 928c0 17.664 14.336 32 32 32s32-14.336 32-32l0-250.368C385.984 652.032 371.776 640 348.352 640z" p-id="6146" fill="#ffffff"></path><path d="M613.632 448 864 448C881.664 448 896 433.664 896 416S881.664 384 864 384l-180.672 0 203.52-203.456c11.968-11.968 11.968-31.36 0-43.392-12.032-11.968-31.424-11.968-43.392 0L640 340.672 640 160C640 142.336 625.664 128 608 128S576 142.336 576 160l0 250.368C576 435.968 590.272 448 613.632 448z" p-id="6147" fill="#ffffff"></path><path d="M385.984 410.368 385.984 160c0-17.664-14.336-32-32-32s-32 14.336-32 32l0 180.672-203.456-203.52c-11.968-11.968-31.36-11.968-43.392 0-11.968 12.032-11.968 31.424 0 43.392L278.656 384 97.984 384c-17.664 0-32 14.336-32 32S80.32 448 97.984 448l250.368 0C371.776 448 385.984 435.968 385.984 410.368z" p-id="6148" fill="#ffffff"></path></svg>