<svg t="1705927915977" class="icon" viewBox="0 0 1024 1024" version="1.1" xmlns="http://www.w3.org/2000/svg" p-id="9157" width="16" height="16"><path d="M880.64 98.304H389.12c-45.056 0-81.92 36.864-81.92 81.92v204.8h81.92v-204.8h491.52v614.4h-299.008v81.92H880.64c45.056 0 81.92-36.864 81.92-81.92v-614.4c0-45.056-36.864-81.92-81.92-81.92z" opacity=".9" p-id="9158" fill="#000000"></path><path d="M102.4 466.944c0-45.056 36.864-81.92 81.92-81.92h315.392c45.056 0 81.92 36.864 81.92 81.92v409.6c0 45.056-36.864 81.92-81.92 81.92H184.32c-45.056 0-81.92-36.864-81.92-81.92v-409.6z" p-id="9159" fill="#000000"></path></svg>