<svg t="1705926688404" class="icon" viewBox="0 0 1024 1024" version="1.1" xmlns="http://www.w3.org/2000/svg" p-id="2374" width="16" height="16"><path d="M128 413.525333v459.52h768V413.525333H128z m-32-65.621333h832a30.72 30.72 0 0 1 23.04 9.216 32.426667 32.426667 0 0 1 8.96 23.594667v525.141333a32.426667 32.426667 0 0 1-8.96 23.594667 30.72 30.72 0 0 1-23.04 9.216H96a30.72 30.72 0 0 1-23.04-9.216 32.426667 32.426667 0 0 1-8.96-23.594667V380.714667a32.426667 32.426667 0 0 1 8.96-23.594667 30.72 30.72 0 0 1 23.04-9.216z m64-131.285333h704v65.621333H160V216.618667zM256 85.333333h512v65.621334H256V85.333333z" fill="#000000" fill-opacity=".65" p-id="2375"></path></svg>